<?xml version="1.0" encoding="UTF-8"?>
<svg xmlns="http://www.w3.org/2000/svg" version="1.1" viewBox="0 0 80.8 80.2">
  <!-- Generator: Adobe Illustrator 30.1.0, SVG Export Plug-In . SVG Version: 2.1.1 Build 136)  -->
  <g id="Layer_3" display="none">
    <rect width="80.8" height="80.2"/>
  </g>
  <g id="Color" display="none">
    <path d="M43.7,80.2c20.5,0,37-16.6,37-37S64.2,6.1,43.7,6.1,6.7,22.7,6.7,43.2s16.6,37,37,37"/>
    <path d="M38.6,76.4c20.9,0,37.8-16.9,37.8-37.8S59.5.8,38.6.8.8,17.7.8,38.6s16.9,37.8,37.8,37.8h0Z" fill="#ff90e8" stroke="#000" stroke-width="1.6"/>
    <path d="M35.4,57.3c-10.9,0-17.2-8.7-17.2-19.5s7-20.4,20.4-20.4,18.5,9.3,18.7,14.6h-10c-.2-3-2.8-7.4-8.9-7.4s-10.9,5.7-10.9,12.7,4.3,12.7,10.9,12.7,8.5-4.7,9.6-9.3h-9.6v-3.8h20.1v19.5h-8.8v-12.3c-.6,4.5-3.4,13.2-14.2,13.2h-.1Z"/>
  </g>
  <g id="Mono">
    <path d="M38.6,76.4c20.9,0,37.8-16.9,37.8-37.8S59.5.8,38.6.8.8,17.7.8,38.6s16.9,37.8,37.8,37.8h0Z" fill="none" stroke="#fff" stroke-width="1.6"/>
    <path d="M69.07,16.22c4.61,6.26,7.33,14,7.33,22.38,0,20.9-16.9,37.8-37.8,37.8-6.91,0-13.39-1.86-18.96-5.09,6.47,5.54,14.88,8.89,24.06,8.89,20.5,0,37-16.6,37-37,0-10.61-4.47-20.21-11.63-26.98Z" fill="#fff"/>
    <path d="M35.4,57.3c-10.9,0-17.2-8.7-17.2-19.5s7-20.4,20.4-20.4,18.5,9.3,18.7,14.6h-10c-.2-3-2.8-7.4-8.9-7.4s-10.9,5.7-10.9,12.7,4.3,12.7,10.9,12.7,8.5-4.7,9.6-9.3h-9.6v-3.8h20.1v19.5h-8.8v-12.3c-.6,4.5-3.4,13.2-14.2,13.2h-.1Z" fill="#fff"/>
  </g>
</svg>